<svg xmlns="http://www.w3.org/2000/svg" width="48.011" height="48" viewBox="0 0 48.011 48">
  <path id="instagram-brands" d="M23.936,43.518A12.307,12.307,0,1,0,36.242,55.825,12.287,12.287,0,0,0,23.936,43.518Zm0,20.307a8,8,0,1,1,8-8,8.015,8.015,0,0,1-8,8Zm15.68-20.811a2.87,2.87,0,1,1-2.87-2.87A2.864,2.864,0,0,1,39.616,43.015Zm8.151,2.913c-.182-3.845-1.06-7.251-3.877-10.057s-6.212-3.684-10.057-3.877c-3.963-.225-15.841-.225-19.8,0-3.834.182-7.24,1.06-10.057,3.867S.286,42.072.094,45.918c-.225,3.963-.225,15.841,0,19.8.182,3.845,1.06,7.251,3.877,10.057s6.212,3.684,10.057,3.877c3.963.225,15.841.225,19.8,0,3.845-.182,7.251-1.06,10.057-3.877s3.684-6.212,3.877-10.057c.225-3.963.225-15.83,0-19.793Zm-5.12,24.046a8.1,8.1,0,0,1-4.563,4.563c-3.16,1.253-10.657.964-14.149.964s-11,.278-14.149-.964a8.1,8.1,0,0,1-4.563-4.563c-1.253-3.16-.964-10.657-.964-14.149s-.278-11,.964-14.149a8.1,8.1,0,0,1,4.563-4.563c3.16-1.253,10.657-.964,14.149-.964s11-.278,14.149.964a8.1,8.1,0,0,1,4.563,4.563c1.253,3.16.964,10.657.964,14.149S43.9,66.825,42.647,69.974Z" transform="translate(0.075 -31.825)" fill="#3f4952"/>
</svg>
