<svg xmlns="http://www.w3.org/2000/svg" width="227.8" height="45" viewBox="0 0 227.8 45"><g transform="translate(-40 -27.5)"><path d="M30.852-25.272V0H24.7V-15.156L19.044,0H14.076L8.388-15.192V0H2.232V-25.272H9.5L16.6-7.776l7.02-17.5Zm7.524,3.1a3.731,3.731,0,0,1-2.646-.954A3.091,3.091,0,0,1,34.7-25.488a3.131,3.131,0,0,1,1.026-2.394,3.731,3.731,0,0,1,2.646-.954,3.682,3.682,0,0,1,2.61.954,3.131,3.131,0,0,1,1.026,2.394,3.091,3.091,0,0,1-1.026,2.358A3.682,3.682,0,0,1,38.376-22.176Zm3.06,2.088V0H35.28V-20.088Zm10.62-6.552V0H45.9V-26.64ZM68.8,0l-6.12-8.424V0H56.52V-26.64h6.156v14.724l6.084-8.172h7.6L68-10.008,76.428,0ZM87.912.252a13,13,0,0,1-4.968-.9,8.1,8.1,0,0,1-3.51-2.664A7.278,7.278,0,0,1,78.048-7.56H84.6a3.179,3.179,0,0,0,.972,2.142,3.125,3.125,0,0,0,2.16.738,3.378,3.378,0,0,0,2.16-.63,2.107,2.107,0,0,0,.792-1.746,2.067,2.067,0,0,0-.63-1.548,5.082,5.082,0,0,0-1.548-1.008,24.9,24.9,0,0,0-2.61-.9,28.419,28.419,0,0,1-4-1.512,7.383,7.383,0,0,1-2.664-2.232,6.219,6.219,0,0,1-1.116-3.852,6.624,6.624,0,0,1,2.556-5.526,10.5,10.5,0,0,1,6.66-2,10.624,10.624,0,0,1,6.732,2A7.152,7.152,0,0,1,96.8-18.072h-6.66a2.6,2.6,0,0,0-.9-1.926,3.171,3.171,0,0,0-2.124-.7,2.647,2.647,0,0,0-1.8.594,2.142,2.142,0,0,0-.684,1.71,2.12,2.12,0,0,0,1.152,1.908,18.884,18.884,0,0,0,3.6,1.476,33.293,33.293,0,0,1,3.978,1.584,7.573,7.573,0,0,1,2.646,2.2,5.878,5.878,0,0,1,1.116,3.708A7.276,7.276,0,0,1,96.03-3.6,7.69,7.69,0,0,1,92.844-.792,10.907,10.907,0,0,1,87.912.252ZM112.1-5.22V0h-3.132a7.667,7.667,0,0,1-5.22-1.638q-1.872-1.638-1.872-5.346v-7.992H99.432v-5.112h2.448v-4.9h6.156v4.9h4.032v5.112h-4.032v8.064a1.687,1.687,0,0,0,.432,1.3,2.109,2.109,0,0,0,1.44.4ZM124.668.288a11.088,11.088,0,0,1-5.31-1.26,9.226,9.226,0,0,1-3.708-3.6,10.757,10.757,0,0,1-1.35-5.472,10.671,10.671,0,0,1,1.368-5.454,9.282,9.282,0,0,1,3.744-3.618,11.194,11.194,0,0,1,5.328-1.26,11.194,11.194,0,0,1,5.328,1.26,9.282,9.282,0,0,1,3.744,3.618,10.671,10.671,0,0,1,1.368,5.454,10.562,10.562,0,0,1-1.386,5.454,9.372,9.372,0,0,1-3.78,3.618A11.3,11.3,0,0,1,124.668.288Zm0-5.328a4.01,4.01,0,0,0,3.006-1.3,5.149,5.149,0,0,0,1.242-3.708,5.245,5.245,0,0,0-1.206-3.708,3.9,3.9,0,0,0-2.97-1.3,3.907,3.907,0,0,0-2.988,1.278,5.283,5.283,0,0,0-1.188,3.726,5.348,5.348,0,0,0,1.17,3.708A3.787,3.787,0,0,0,124.668-5.04Zm19.944-11.7a8.121,8.121,0,0,1,2.7-2.61,6.962,6.962,0,0,1,3.6-.954v6.516H149.22a5.187,5.187,0,0,0-3.456.99,4.4,4.4,0,0,0-1.152,3.474V0h-6.156V-20.088h6.156ZM172.8-10.368a15.714,15.714,0,0,1-.108,1.8H158.76a4.186,4.186,0,0,0,1.206,2.862,3.684,3.684,0,0,0,2.61.99,3.235,3.235,0,0,0,3.2-1.944h6.552A8.991,8.991,0,0,1,170.514-3.1,9.1,9.1,0,0,1,167.22-.612a10.58,10.58,0,0,1-4.428.9,10.775,10.775,0,0,1-5.256-1.26,8.962,8.962,0,0,1-3.6-3.6,11.114,11.114,0,0,1-1.3-5.472,11.241,11.241,0,0,1,1.278-5.472,8.846,8.846,0,0,1,3.582-3.6,10.851,10.851,0,0,1,5.292-1.26,10.742,10.742,0,0,1,5.184,1.224,8.789,8.789,0,0,1,3.546,3.492A10.6,10.6,0,0,1,172.8-10.368Zm-6.3-1.62a3.165,3.165,0,0,0-1.08-2.52,3.976,3.976,0,0,0-2.7-.936,3.9,3.9,0,0,0-2.61.9,4,4,0,0,0-1.314,2.556Z" transform="translate(95 63)" fill="#3f4952"/><g transform="translate(38.016 26)"><path d="M1.984,29.29a17.21,17.21,0,0,1,17.21-17.21V29.29Z" fill="#3f4952"/><path d="M1.984,29.29A17.21,17.21,0,0,0,19.194,46.5V29.29Z" fill="#606a72"/><path d="M36.4,29.29A17.21,17.21,0,0,1,19.194,46.5V29.29Z" fill="#939ba2"/><path d="M47.016,14.422A12.922,12.922,0,0,1,34.093,27.344H21.172V14.422a12.922,12.922,0,1,1,25.844,0Z" fill="#ff7917"/></g></g></svg>